<svg xmlns="http://www.w3.org/2000/svg" xmlns:xlink="http://www.w3.org/1999/xlink" viewBox="0 0 389.42 144"><defs><style>.cls-1{fill:#2d3746;}.cls-2{fill:url(#linear-gradient);}.cls-3{fill:#fff;}</style><linearGradient id="linear-gradient" x1="108.01" y1="9.64" x2="35.99" y2="134.36" gradientUnits="userSpaceOnUse"><stop offset="0" stop-color="#32c8f0"/><stop offset="1" stop-color="#5a46b4"/></linearGradient></defs><g id="Layer_2" data-name="Layer 2"><g id="Layer_1-2" data-name="Layer 1"><path class="cls-1" d="M222,93.47h-10.9L200.77,75.69h-7.68V93.47H183V42.26h20.48a17,17,0,0,1,17.05,17,15.62,15.62,0,0,1-2.71,8.82,16.9,16.9,0,0,1-7.17,6.11ZM203.47,51.7H193.09V66.84h10.38a6.41,6.41,0,0,0,4.9-2.23,7.66,7.66,0,0,0,2-5.38,7.55,7.55,0,0,0-2-5.34A6.47,6.47,0,0,0,203.47,51.7Z"/><path class="cls-1" d="M253.44,61.21V56.89h9.43V93.47h-9.43V89.15q-4.24,5.34-11.93,5.34a16.73,16.73,0,0,1-12.58-5.56,19.53,19.53,0,0,1-5.19-13.75,19.48,19.48,0,0,1,5.19-13.68,16.66,16.66,0,0,1,12.58-5.63Q249.19,55.87,253.44,61.21ZM236,82.64a10.59,10.59,0,0,0,14.48,0,10.1,10.1,0,0,0,2.93-7.46,9.89,9.89,0,0,0-2.93-7.39,10.44,10.44,0,0,0-14.48,0,10,10,0,0,0-2.86,7.39A10.2,10.2,0,0,0,236,82.64Z"/><path class="cls-1" d="M292.72,55.87A16.51,16.51,0,0,1,305.3,61.5a19.32,19.32,0,0,1,5.27,13.68,19.22,19.22,0,0,1-5.27,13.75,16.42,16.42,0,0,1-12.58,5.56q-7.68,0-11.85-5.34v4.32h-9.44V42.26h9.44v19Q285,55.87,292.72,55.87Zm-9,26.77a10.59,10.59,0,0,0,14.48,0,10.1,10.1,0,0,0,2.93-7.46,9.89,9.89,0,0,0-2.93-7.39,10.44,10.44,0,0,0-14.48,0,10,10,0,0,0-2.85,7.39A10.24,10.24,0,0,0,283.72,82.64Z"/><path class="cls-1" d="M346.05,93.47H336V42.26h10.1V93.47"/><path class="cls-1" d="M351.75,42.26h37.67v9.66H375.6V93.47H365.5V51.92H351.75Z"/><circle class="cls-2" cx="72" cy="72" r="72"/><path class="cls-3" d="M123.44,75.35C107.35,39.2,52.21,22.51,26.81,29.75c4.81,13.89,23,29.53,39.74,30.71A55.74,55.74,0,0,0,48.68,84.71C51.89,94.78,76,122.48,101,124.83c.92-23.11-9.14-34.27-9.14-34.27C105.33,89.49,118.78,81,123.44,75.35ZM82.25,63C89,59.87,99,66,98.89,72.61,92.1,75.74,82.18,69.59,82.25,63Z"/></g></g></svg>